<svg xmlns="http://www.w3.org/2000/svg" data-lax-translate-y="0 0, vh 100px" viewBox="0 0 2500 230" preserveAspectRatio="xMaxYMid" aria-labelledby="title" aria-role="img" data-points-from="-0 230, 99 230, 363 230, 472 230, 604 230, 730 230, 843 230, 931 230, 1041 230, 1137 230, 1244 230, 1321 230, 1373 230, 1414 230, 1519 230, 1662 230, 1807 230, 1855 230, 1884 230, 1912 230, 1981 230, 2067 230, 2110 230, 2171 230, 2302 230, 2377 230, 2470 230, 2500 230, 2500 229, -0 229, -0 230" data-points-to="-0 4, 99 28, 363 69, 472 92, 604 88, 730 85, 843 85, 931 86, 1041 109, 1137 127, 1244 110, 1321 108, 1373 117, 1414 137, 1519 156, 1662 167, 1807 162, 1855 150, 1884 154, 1912 167, 1981 157, 2067 156, 2110 139, 2171 188, 2302 214, 2377 217, 2470 197, 2500 206, 2500 229, -0 229, -0 4" style="backface-visibility: hidden; transform: translateY(40.9701px);">
    <polygon class="polymorph" points="0 4, 99 28, 363 69, 472 92, 604 88, 730 85, 843 85, 931 86, 1041 109, 1137 127, 1244 110, 1321 108, 1373 117, 1414 137, 1519 156, 1662 167, 1807 162, 1855 150, 1884 154, 1912 167, 1981 157, 2067 156, 2110 139, 2171 188, 2302 214, 2377 217, 2470 197, 2500 206, 2500 229, 0 229, 0 4 "></polygon>
  </svg>