<svg xmlns="http://www.w3.org/2000/svg" viewBox="0 0 2500 120" preserveAspectRatio="xMaxYMid" aria-labelledby="title" aria-role="img" data-points-from="2500 120, 0 120, 0 120, 37 120, 215 120, 307 120, 382 120, 514 120, 578 120, 621 120, 706 120, 775 120, 803 120, 832 120, 880 120, 1023 120, 1167 120, 1273 120, 1315 120, 1368 120, 1445 120, 1551 120, 1648 120, 1759 120, 1847 120, 1959 120, 2084 120, 2215 120, 2327 120, 2500 120, 2500 120, 2500 120" data-points-to="2500 120, 0 120, 0 94, 37 88, 215 45, 307 72, 382 74, 514 57, 578 13, 621 33, 706 39, 775 54, 803 43, 832 41, 880 57, 1023 72, 1167 71, 1273 59, 1315 43, 1368 37, 1445 45, 1551 68, 1648 58, 1759 42, 1847 48, 1959 55, 2084 67, 2215 80, 2327 64, 2500 50, 2500 120">
    <polygon class="polymorph" points="2500 120, 0 120, 0 94, 37 88, 215 45, 307 72, 382 74, 514 57, 578 13, 621 33, 706 39, 775 54, 803 43, 832 41, 880 57, 1023 72, 1167 71, 1273 59, 1315 43, 1368 37, 1445 45, 1551 68, 1648 58, 1759 42, 1847 48, 1959 55, 2084 67, 2215 80, 2327 64, 2500 50, 2500 120 "></polygon>
  </svg>